# xmcd
#
# Track frame offsets:
#	150
#	16811
#	29963
#	45638
#	64200
#	77874
#	95423
#	112737
#	130543
#	146843
#	162983
#	182639
#	195564
#	211803
#	228733
#	248463
#	263047
#	279450
#	293944
#	308833
#
# Disc length: 4321 seconds
#
# Revision: 3
# Processed by: cddbd v1.5.2PL0 Copyright (c) Steve Scherf et al.
# Submitted via: EasyCDDAExtractor 15.3.0.1
#
DISCID=1b10df14
DTITLE=Daniela Romo - Exitos De Mi Enamorate
DYEAR=2006
DGENRE=Latin
TTITLE0=Amada Mas Que Nunca
TTITLE1=Simple
TTITLE2=Balada Por Un Amor
TTITLE3=Quiero Amanecer Con Alguien
TTITLE4=Debilidad
TTITLE5=Explorame
TTITLE6=Yo No Te Pido La Luna
TTITLE7=Mentiras
TTITLE8=De Mi Enamorate
TTITLE9=Es La Nostalgia
TTITLE10=Duele
TTITLE11=Mujer De Todos, Mujer De Nadie
TTITLE12=Que Vengan Los Bomberos
TTITLE13=Atame A Tu Vida
TTITLE14=Todo, Todo, Todo
TTITLE15=Cuando Tu Me Amas
TTITLE16=En Todo Momento Solo Tuya
TTITLE17=Dueña De Mi Corazon
TTITLE18=Ay, Ay, Ay
TTITLE19=Amor Prohibido
EXTD=
EXTT0=
EXTT1=
EXTT2=
EXTT3=
EXTT4=
EXTT5=
EXTT6=
EXTT7=
EXTT8=
EXTT9=
EXTT10=
EXTT11=
EXTT12=
EXTT13=
EXTT14=
EXTT15=
EXTT16=
EXTT17=
EXTT18=
EXTT19=
PLAYORDER=
